<svg width="33" height="28" viewBox="0 0 33 28" fill="none" xmlns="http://www.w3.org/2000/svg">
<g filter="url(#filter0_di_1_86)">
<path d="M27.657 11.5C27.6634 11.3897 27.6666 11.2786 27.6666 11.1667C27.6666 8.03705 25.1296 5.5 22 5.5C20.494 5.5 19.1253 6.08746 18.1104 7.04572C17.597 6.90721 17.0571 6.83333 16.5 6.83333C14.4849 6.83333 12.6955 7.79989 11.5702 9.29469C11.2272 9.21102 10.8688 9.16666 10.5 9.16666C8.01471 9.16666 6 11.1814 6 13.6667C6 13.6782 6.00004 13.6898 6.00012 13.7014C6.00004 13.7095 6 13.7176 6 13.7258C6 16.7307 8.43595 19.1667 11.4409 19.1667H20C24.2342 19.1667 27.6666 15.7342 27.6666 11.5H27.657Z" fill="white"/>
<path d="M27.657 11.5C27.6634 11.3897 27.6666 11.2786 27.6666 11.1667C27.6666 8.03705 25.1296 5.5 22 5.5C20.494 5.5 19.1253 6.08746 18.1104 7.04572C17.597 6.90721 17.0571 6.83333 16.5 6.83333C14.4849 6.83333 12.6955 7.79989 11.5702 9.29469C11.2272 9.21102 10.8688 9.16666 10.5 9.16666C8.01471 9.16666 6 11.1814 6 13.6667C6 13.6782 6.00004 13.6898 6.00012 13.7014C6.00004 13.7095 6 13.7176 6 13.7258C6 16.7307 8.43595 19.1667 11.4409 19.1667H20C24.2342 19.1667 27.6666 15.7342 27.6666 11.5H27.657Z" fill="url(#paint0_radial_1_86)" fill-opacity="0.2"/>
</g>
<defs>
<filter id="filter0_di_1_86" x="0.666673" y="3.5" width="32.3333" height="24.3333" filterUnits="userSpaceOnUse" color-interpolation-filters="sRGB">
<feFlood flood-opacity="0" result="BackgroundImageFix"/>
<feColorMatrix in="SourceAlpha" type="matrix" values="0 0 0 0 0 0 0 0 0 0 0 0 0 0 0 0 0 0 127 0" result="hardAlpha"/>
<feOffset dy="3.33333"/>
<feGaussianBlur stdDeviation="2.66666"/>
<feComposite in2="hardAlpha" operator="out"/>
<feColorMatrix type="matrix" values="0 0 0 0 0.301961 0 0 0 0 0.368627 0 0 0 0 0.435294 0 0 0 0.08 0"/>
<feBlend mode="normal" in2="BackgroundImageFix" result="effect1_dropShadow_1_86"/>
<feBlend mode="normal" in="SourceGraphic" in2="effect1_dropShadow_1_86" result="shape"/>
<feColorMatrix in="SourceAlpha" type="matrix" values="0 0 0 0 0 0 0 0 0 0 0 0 0 0 0 0 0 0 127 0" result="hardAlpha"/>
<feOffset/>
<feGaussianBlur stdDeviation="0.999999"/>
<feComposite in2="hardAlpha" operator="arithmetic" k2="-1" k3="1"/>
<feColorMatrix type="matrix" values="0 0 0 0 0.301961 0 0 0 0 0.368627 0 0 0 0 0.435294 0 0 0 0.08 0"/>
<feBlend mode="normal" in2="shape" result="effect2_innerShadow_1_86"/>
</filter>
<radialGradient id="paint0_radial_1_86" cx="0" cy="0" r="1" gradientUnits="userSpaceOnUse" gradientTransform="translate(21.1667 6.83333) rotate(121.827) scale(17.066 27.0559)">
<stop stop-opacity="0"/>
<stop offset="1" stop-color="#4D5E6F"/>
</radialGradient>
</defs>
</svg>
